<svg id="Capa_1" enable-background="new 0 0 510 510" height="512" viewBox="0 0 510 510" width="512" xmlns="http://www.w3.org/2000/svg" xmlns:xlink="http://www.w3.org/1999/xlink"><linearGradient id="SVGID_1_" gradientUnits="userSpaceOnUse" x1="97.582" x2="477.411" y1="97.582" y2="477.411"><stop offset="0" stop-color="#8bc727"/><stop offset="1" stop-color="#017b4e"/></linearGradient><linearGradient id="lg1"><stop offset="0" stop-color="#017b4e" stop-opacity="0"/><stop offset="1" stop-color="#026841"/></linearGradient><linearGradient id="SVGID_2_" gradientUnits="userSpaceOnUse" x1="408" x2="224.975" xlink:href="#lg1" y1="255" y2="255"/><linearGradient id="SVGID_3_" gradientUnits="userSpaceOnUse" x1="255" x2="255" xlink:href="#lg1" y1="381.333" y2="446.014"/><linearGradient id="SVGID_4_" gradientUnits="userSpaceOnUse" x1="283.929" x2="198.595" y1="282.121" y2="202.121"><stop offset="0" stop-color="#017b4e" stop-opacity="0"/><stop offset=".5272" stop-color="#016e45" stop-opacity=".527"/><stop offset="1" stop-color="#026841"/></linearGradient><linearGradient id="SVGID_5_" gradientUnits="userSpaceOnUse" x1="178.456" x2="385.123" y1="109.32" y2="502.653"><stop offset="0" stop-color="#eaf6ff"/><stop offset="1" stop-color="#b3dafe"/></linearGradient><linearGradient id="SVGID_6_" gradientUnits="userSpaceOnUse" x1="255" x2="255" y1="395.333" y2="444.005"><stop offset="0" stop-color="#d8ecfe" stop-opacity="0"/><stop offset=".7867" stop-color="#9bd1fe" stop-opacity=".787"/><stop offset="1" stop-color="#8ac9fe"/></linearGradient><g><g><path d="m488.43 426h-466.86c-9.704 0-17.57-7.866-17.57-17.57v-306.86c0-9.703 7.866-17.57 17.57-17.57h466.86c9.704 0 17.57 7.867 17.57 17.57v306.86c0 9.704-7.866 17.57-17.57 17.57z" fill="url(#SVGID_1_)"/><path d="m488.43 84h-233.43v342h233.43c9.704 0 17.57-7.866 17.57-17.57v-306.86c0-9.703-7.866-17.57-17.57-17.57z" fill="url(#SVGID_2_)"/><path d="m4 360v48.43c0 9.704 7.866 17.57 17.57 17.57h466.86c9.704 0 17.57-7.866 17.57-17.57v-48.43z" fill="url(#SVGID_3_)"/><circle cx="255" cy="255" fill="url(#SVGID_4_)" r="77.349"/><path d="m492.033 79h-474.066c-9.923 0-17.967 8.044-17.967 17.967v316.066c0 9.923 8.044 17.967 17.967 17.967h474.066c9.923 0 17.967-8.044 17.967-17.967v-316.066c0-9.923-8.044-17.967-17.967-17.967zm2.134 125.857h-25.719c-5.536 0-10.039 4.503-10.039 10.039v80.207c0 5.536 4.503 10.039 10.039 10.039h25.719v39.369h-56.516v-179.023h56.516zm0 15v70.285h-20.758v-70.285zm.833-122.89v18.167c-.687.073-1.38.116-2.083.116-10.614 0-19.25-8.636-19.25-19.25 0-.674.04-1.34.108-2h18.259c1.635 0 2.966 1.331 2.966 2.967zm-247.5 226.618c-34.531-3.751-61.5-33.073-61.5-68.585s26.969-64.834 61.5-68.585zm15-137.17c34.531 3.751 61.5 33.073 61.5 68.585s-26.969 64.834-61.5 68.585zm-244.533-92.415h18.259c.068.66.107 1.326.107 2 0 10.614-8.636 19.25-19.25 19.25-.703 0-1.397-.044-2.083-.116v-18.167c0-1.636 1.331-2.967 2.967-2.967zm-2.134 211.143h25.719c5.536 0 10.039-4.503 10.039-10.039v-80.207c0-5.536-4.503-10.039-10.039-10.039h-25.719v-39.369h56.516v179.023h-56.516zm0-15v-70.285h20.758v70.285zm-.833 122.89v-18.167c.687-.073 1.38-.117 2.083-.117 10.614 0 19.25 8.636 19.25 19.25 0 .674-.04 1.34-.107 2h-18.259c-1.636.001-2.967-1.33-2.967-2.966zm36.274 2.967c.04-.666.06-1.333.06-2 0-18.886-15.364-34.25-34.25-34.25-.696 0-1.39.023-2.083.065v-20.303h59.433c7.122 0 12.916-5.794 12.916-12.916v-48.264c20.691-3.572 36.484-21.636 36.484-43.332 0-21.695-15.793-39.76-36.484-43.331v-48.264c0-7.122-5.794-12.916-12.916-12.916h-59.434v-20.303c.693.042 1.388.065 2.083.065 18.886 0 34.25-15.364 34.25-34.25 0-.667-.02-1.334-.06-2h196.227v77.352c-42.815 3.808-76.5 39.858-76.5 83.647s33.685 79.839 76.5 83.648v77.352zm36.075-188.995c12.357 3.314 21.484 14.606 21.484 27.995 0 13.388-9.127 24.681-21.484 27.995zm175.151 111.643c42.815-3.809 76.5-39.859 76.5-83.648s-33.685-79.839-76.5-83.648v-77.352h196.226c-.039.666-.06 1.333-.06 2 0 18.886 15.364 34.25 34.25 34.25.696 0 1.391-.023 2.083-.065v20.303h-59.433c-7.122 0-12.916 5.794-12.916 12.916v48.264c-20.691 3.571-36.484 21.636-36.484 43.331s15.793 39.76 36.484 43.332v48.264c0 7.122 5.794 12.916 12.916 12.916h59.434v20.303c-.693-.042-1.388-.065-2.083-.065-18.886 0-34.25 15.364-34.25 34.25 0 .667.02 1.334.06 2h-196.227zm160.151-55.653c-12.357-3.314-21.484-14.607-21.484-27.995s9.127-24.681 21.484-27.995zm69.382 133.005h-18.259c-.068-.66-.108-1.326-.108-2 0-10.614 8.636-19.25 19.25-19.25.703 0 1.397.044 2.083.117v18.167c.001 1.635-1.33 2.966-2.966 2.966z" fill="url(#SVGID_5_)"/></g><path d="m495 360v19.815c-.693-.042-1.388-.065-2.083-.065-18.886 0-34.25 15.364-34.25 34.25 0 .667.02 1.334.06 2h-196.227v-56h-15v56h-196.226c.04-.666.06-1.333.06-2 0-18.886-15.364-34.25-34.25-34.25-.696 0-1.39.023-2.083.065v-19.815h-15.001v53.033c0 9.923 8.044 17.967 17.967 17.967h474.066c9.923 0 17.967-8.044 17.967-17.967v-53.033zm-458.774 56h-18.259c-1.636 0-2.967-1.331-2.967-2.967v-18.167c.687-.073 1.38-.117 2.083-.117 10.614 0 19.25 8.636 19.25 19.25 0 .675-.039 1.341-.107 2.001zm458.774-2.967c0 1.636-1.331 2.967-2.967 2.967h-18.259c-.068-.66-.108-1.326-.108-2 0-10.614 8.636-19.25 19.25-19.25.703 0 1.397.044 2.083.117v18.166z" fill="url(#SVGID_6_)"/></g></svg>