<svg id="Capa_1" enable-background="new 0 0 510 510" height="512" viewBox="0 0 510 510" width="512" xmlns="http://www.w3.org/2000/svg" xmlns:xlink="http://www.w3.org/1999/xlink"><linearGradient id="lg1"><stop offset="0" stop-color="#fee97d"/><stop offset="1" stop-color="#fac600"/></linearGradient><linearGradient id="SVGID_1_" gradientTransform="matrix(0 1 -1 0 971.611 -752.001)" gradientUnits="userSpaceOnUse" x1="1038.656" x2="1147.552" xlink:href="#lg1" y1="886.457" y2="886.457"/><linearGradient id="SVGID_2_" gradientTransform="matrix(0 1 -1 0 971.611 -752.001)" gradientUnits="userSpaceOnUse" x1="1076.435" x2="1185.331" xlink:href="#lg1" y1="848.678" y2="848.678"/><linearGradient id="SVGID_3_" gradientTransform="matrix(0 1 -1 0 971.611 -752.001)" gradientUnits="userSpaceOnUse" x1="1114.214" x2="1223.11" xlink:href="#lg1" y1="810.899" y2="810.899"/><linearGradient id="SVGID_4_" gradientTransform="matrix(0 1 -1 0 971.611 -752.001)" gradientUnits="userSpaceOnUse" x1="1141.993" x2="1250.888" xlink:href="#lg1" y1="773.12" y2="773.12"/><linearGradient id="SVGID_5_" gradientTransform="matrix(0 1 -1 0 971.611 -752.001)" gradientUnits="userSpaceOnUse" x1="1153.105" x2="1262.001" xlink:href="#lg1" y1="735.341" y2="735.341"/><linearGradient id="SVGID_6_" gradientTransform="matrix(0 1 1 0 392.972 -752.001)" gradientUnits="userSpaceOnUse" x1="1038.656" x2="1147.552" xlink:href="#lg1" y1="31.874" y2="31.874"/><linearGradient id="SVGID_7_" gradientTransform="matrix(0 1 1 0 392.972 -752.001)" gradientUnits="userSpaceOnUse" x1="1076.435" x2="1185.331" xlink:href="#lg1" y1="-5.905" y2="-5.905"/><linearGradient id="SVGID_8_" gradientTransform="matrix(0 1 1 0 392.972 -752.001)" gradientUnits="userSpaceOnUse" x1="1114.214" x2="1223.11" xlink:href="#lg1" y1="-43.684" y2="-43.684"/><linearGradient id="SVGID_9_" gradientTransform="matrix(0 1 1 0 392.972 -752.001)" gradientUnits="userSpaceOnUse" x1="1141.993" x2="1250.888" xlink:href="#lg1" y1="-81.463" y2="-81.463"/><linearGradient id="SVGID_10_" gradientTransform="matrix(0 1 1 0 392.972 -752.001)" gradientUnits="userSpaceOnUse" x1="1153.105" x2="1262.001" xlink:href="#lg1" y1="-119.241" y2="-119.241"/><linearGradient id="lg2"><stop offset="0" stop-color="#fd4755"/><stop offset="1" stop-color="#d2024e"/></linearGradient><linearGradient id="SVGID_11_" gradientUnits="userSpaceOnUse" x1="169.5" x2="381.886" xlink:href="#lg2" y1="111.089" y2="323.476"/><linearGradient id="lg3"><stop offset="0" stop-color="#c00148" stop-opacity="0"/><stop offset="1" stop-color="#6d3326"/></linearGradient><linearGradient id="SVGID_12_" gradientUnits="userSpaceOnUse" x1="424.616" x2="273.827" xlink:href="#lg3" y1="409.446" y2="258.657"/><linearGradient id="SVGID_13_" gradientUnits="userSpaceOnUse" x1="255" x2="255" xlink:href="#lg3" y1="328.517" y2="454.771"/><linearGradient id="SVGID_14_" gradientUnits="userSpaceOnUse" x1="191.949" x2="229.091" xlink:href="#lg1" y1="135.586" y2="196.993"/><linearGradient id="SVGID_15_" gradientUnits="userSpaceOnUse" x1="255" x2="255" xlink:href="#lg3" y1="196.49" y2="86.903"/><linearGradient id="SVGID_16_" gradientUnits="userSpaceOnUse" x1="385.618" x2="247.617" y1="370.448" y2="232.446"><stop offset="0" stop-color="#fac600" stop-opacity="0"/><stop offset=".6899" stop-color="#d68c3d" stop-opacity=".69"/><stop offset="1" stop-color="#c5715a"/></linearGradient><linearGradient id="SVGID_17_" gradientUnits="userSpaceOnUse" x1="210.004" x2="236.143" y1="165.726" y2="208.942"><stop offset="0" stop-color="#eaf6ff"/><stop offset="1" stop-color="#d8ecfe"/></linearGradient><linearGradient id="lg4"><stop offset="0" stop-color="#d8ecfe" stop-opacity="0"/><stop offset=".1354" stop-color="#cae5fe" stop-opacity=".135"/><stop offset=".5015" stop-color="#a7d6fe" stop-opacity=".501"/><stop offset=".8028" stop-color="#92cdfe" stop-opacity=".803"/><stop offset="1" stop-color="#8ac9fe"/></linearGradient><linearGradient id="SVGID_18_" gradientUnits="userSpaceOnUse" x1="206.058" x2="183.513" xlink:href="#lg4" y1="248.699" y2="211.828"/><linearGradient id="SVGID_19_" gradientUnits="userSpaceOnUse" x1="282.42" x2="234.746" xlink:href="#lg4" y1="207.027" y2="167.808"/><linearGradient id="SVGID_20_" gradientUnits="userSpaceOnUse" x1="296.61" x2="281.815" xlink:href="#lg4" y1="267.934" y2="226.014"/><linearGradient id="lg5"><stop offset="0" stop-color="#eaf6ff"/><stop offset="1" stop-color="#b3dafe"/></linearGradient><linearGradient id="SVGID_21_" gradientUnits="userSpaceOnUse" x1="259.227" x2="248.987" xlink:href="#lg5" y1="192.513" y2="192.513"/><linearGradient id="SVGID_22_" gradientUnits="userSpaceOnUse" x1="309.592" x2="303.603" xlink:href="#lg5" y1="242.494" y2="225.409"/><linearGradient id="lg6"><stop offset="0" stop-color="#d8ecfe"/><stop offset="1" stop-color="#b3dafe"/></linearGradient><linearGradient id="SVGID_23_" gradientUnits="userSpaceOnUse" x1="282.511" x2="288.584" xlink:href="#lg6" y1="290.414" y2="284.341"/><linearGradient id="SVGID_24_" gradientUnits="userSpaceOnUse" x1="204.379" x2="208.09" xlink:href="#lg5" y1="231.492" y2="219.663"/><linearGradient id="SVGID_25_" gradientUnits="userSpaceOnUse" x1="225.111" x2="220.275" xlink:href="#lg6" y1="288.036" y2="283.2"/><linearGradient id="SVGID_26_" gradientUnits="userSpaceOnUse" x1="257.407" x2="267.623" y1="265.043" y2="322.814"><stop offset="0" stop-color="#8ac9fe" stop-opacity="0"/><stop offset=".0634" stop-color="#85c2f3" stop-opacity=".063"/><stop offset=".3677" stop-color="#70a3c3" stop-opacity=".368"/><stop offset=".6362" stop-color="#608ca0" stop-opacity=".636"/><stop offset=".8561" stop-color="#577e8b" stop-opacity=".856"/><stop offset="1" stop-color="#537983"/></linearGradient><linearGradient id="lg7"><stop offset="0" stop-color="#5a5a5a"/><stop offset="1" stop-color="#444"/></linearGradient><linearGradient id="SVGID_27_" gradientUnits="userSpaceOnUse" x1="235.79" x2="266.964" xlink:href="#lg7" y1="223.011" y2="261.582"/><linearGradient id="SVGID_28_" gradientUnits="userSpaceOnUse" x1="252.189" x2="333.322" xlink:href="#lg7" y1="139.353" y2="220.485"/><linearGradient id="SVGID_29_" gradientUnits="userSpaceOnUse" x1="193.019" x2="274.151" xlink:href="#lg7" y1="198.523" y2="279.656"/><linearGradient id="SVGID_30_" gradientUnits="userSpaceOnUse" x1="251.178" x2="268.791" xlink:href="#lg7" y1="153.837" y2="177.322"/><linearGradient id="SVGID_31_" gradientUnits="userSpaceOnUse" x1="172.507" x2="188.006" xlink:href="#lg7" y1="211.738" y2="233.813"/><linearGradient id="SVGID_32_" gradientUnits="userSpaceOnUse" x1="149.488" x2="230.62" xlink:href="#lg7" y1="242.054" y2="323.186"/><linearGradient id="lg8"><stop offset="0" stop-color="#444" stop-opacity="0"/><stop offset=".0602" stop-color="#414141" stop-opacity=".06"/><stop offset=".6562" stop-color="#252525" stop-opacity=".656"/><stop offset="1" stop-color="#1a1a1a"/></linearGradient><linearGradient id="SVGID_33_" gradientUnits="userSpaceOnUse" x1="255" x2="255" xlink:href="#lg8" y1="266.955" y2="283.402"/><linearGradient id="SVGID_34_" gradientUnits="userSpaceOnUse" x1="303.393" x2="303.393" xlink:href="#lg8" y1="299.011" y2="316.907"/><linearGradient id="SVGID_35_" gradientUnits="userSpaceOnUse" x1="206.607" x2="206.607" xlink:href="#lg8" y1="299.011" y2="316.907"/><linearGradient id="SVGID_36_" gradientUnits="userSpaceOnUse" x1="89.483" x2="116.481" xlink:href="#lg3" y1="68.254" y2="132.751"/><linearGradient id="SVGID_37_" gradientUnits="userSpaceOnUse" x1="365.469" x2="392.468" xlink:href="#lg3" y1="68.254" y2="132.751"/><linearGradient id="SVGID_38_" gradientUnits="userSpaceOnUse" x1="255" x2="255" y1="35.606" y2="71.209"><stop offset="0" stop-color="#cecece"/><stop offset="1" stop-color="#838383"/></linearGradient><linearGradient id="SVGID_39_" gradientUnits="userSpaceOnUse" x1="255" x2="255" xlink:href="#lg2" y1="22.499" y2="87.013"/><linearGradient id="SVGID_40_" gradientTransform="matrix(0 -1 1 0 413.562 622.71)" gradientUnits="userSpaceOnUse" x1="570.962" x2="570.962" xlink:href="#lg5" y1="-406.304" y2="-385.977"/><linearGradient id="SVGID_41_" gradientTransform="matrix(0 -1 1 0 413.562 622.71)" gradientUnits="userSpaceOnUse" x1="570.962" x2="570.962" xlink:href="#lg5" y1="68.094" y2="88.421"/><g><g><g><path d="m85.155 286.656c-5.172 0-9.365 4.193-9.365 9.365v90.165c0 5.172 4.193 9.365 9.365 9.365 5.172 0 9.365-4.193 9.365-9.365v-90.165c0-5.172-4.193-9.365-9.365-9.365z" fill="url(#SVGID_1_)"/><path d="m122.933 324.435c-5.172 0-9.365 4.193-9.365 9.365v90.165c0 5.172 4.193 9.365 9.365 9.365 5.172 0 9.365-4.193 9.365-9.365v-90.165c.001-5.172-4.192-9.365-9.365-9.365z" fill="url(#SVGID_2_)"/><path d="m160.712 362.213c-5.172 0-9.365 4.193-9.365 9.365v90.165c0 5.172 4.193 9.365 9.365 9.365 5.172 0 9.365-4.193 9.365-9.365v-90.165c0-5.172-4.193-9.365-9.365-9.365z" fill="url(#SVGID_3_)"/><path d="m198.491 389.992c-5.172 0-9.365 4.193-9.365 9.365v90.165c0 5.172 4.193 9.365 9.365 9.365 5.172 0 9.365-4.193 9.365-9.365v-90.165c0-5.172-4.193-9.365-9.365-9.365z" fill="url(#SVGID_4_)"/><path d="m236.27 401.104c-5.172 0-9.365 4.193-9.365 9.365v90.165c0 5.172 4.193 9.365 9.365 9.365 5.172 0 9.365-4.193 9.365-9.365v-90.165c0-5.172-4.193-9.365-9.365-9.365z" fill="url(#SVGID_5_)"/></g><g><path d="m424.845 286.656c5.172 0 9.365 4.193 9.365 9.365v90.165c0 5.172-4.193 9.365-9.365 9.365-5.172 0-9.365-4.193-9.365-9.365v-90.165c0-5.172 4.193-9.365 9.365-9.365z" fill="url(#SVGID_6_)"/><path d="m387.067 324.435c5.172 0 9.365 4.193 9.365 9.365v90.165c0 5.172-4.193 9.365-9.365 9.365-5.172 0-9.365-4.193-9.365-9.365v-90.165c-.001-5.172 4.192-9.365 9.365-9.365z" fill="url(#SVGID_7_)"/><path d="m349.288 362.213c5.172 0 9.365 4.193 9.365 9.365v90.165c0 5.172-4.193 9.365-9.365 9.365-5.172 0-9.365-4.193-9.365-9.365v-90.165c0-5.172 4.193-9.365 9.365-9.365z" fill="url(#SVGID_8_)"/><path d="m311.509 389.992c5.172 0 9.365 4.193 9.365 9.365v90.165c0 5.172-4.193 9.365-9.365 9.365-5.172 0-9.365-4.193-9.365-9.365v-90.165c0-5.172 4.193-9.365 9.365-9.365z" fill="url(#SVGID_9_)"/><path d="m273.73 401.104c5.172 0 9.365 4.193 9.365 9.365v90.165c0 5.172-4.193 9.365-9.365 9.365-5.172 0-9.365-4.193-9.365-9.365v-90.165c0-5.172 4.193-9.365 9.365-9.365z" fill="url(#SVGID_10_)"/></g></g><path d="m60.793 86.996v200.336c0 12.071 4.795 23.647 13.33 32.182l87.124 87.124c51.778 51.778 135.728 51.778 187.506 0l87.124-87.124c8.535-8.535 13.33-20.111 13.33-32.182v-200.336z" fill="url(#SVGID_11_)"/><path d="m446.08 303.874-126.562-126.562-127.036 127.036 125.329 125.329c11.114-5.983 21.558-13.656 30.942-23.04l87.124-87.124c4.493-4.492 7.937-9.833 10.203-15.639z" fill="url(#SVGID_12_)"/><path d="m60.793 265.487v21.845c0 12.071 4.795 23.647 13.33 32.182l87.124 87.124c51.778 51.778 135.728 51.778 187.506 0l87.124-87.124c8.535-8.535 13.33-20.111 13.33-32.182v-21.845z" fill="url(#SVGID_13_)"/><circle cx="255" cy="239.83" fill="url(#SVGID_14_)" r="126.281"/><path d="m449.21 86.997v200.33c0 12.08-4.8 23.65-13.33 32.19l-78.07 78.06-297.02-297.02v-13.56z" fill="url(#SVGID_15_)"/><path d="m192.482 304.348 61.753 61.753c.255.001.509.01.765.01 69.743 0 126.281-56.538 126.281-126.281 0-.256-.008-.51-.01-.765l-61.753-61.753z" fill="url(#SVGID_16_)"/><g><path d="m335.72 230.721c0 3.818 8.87 16.689 8.408 20.381-1.847 14.748-7.269 28.385-15.371 40.015-5.772 8.285-13.904 12.551-22.072 18.476-8.813 6.392-17.833 14.222-28.653 17.084-7.35 1.944-15.07 2.98-23.031 2.98s-15.681-1.036-23.031-2.98c-10.267-2.716-19.813-10.203-28.292-16.116-8.739-6.094-16.343-10.702-22.433-19.444-8.102-11.63-13.525-25.267-15.371-40.015-.462-3.693 1.299-7.455 1.299-11.273 0-21.925 5.855-42.016 18.905-57.611 8.146-9.735 18.316-17.718 29.863-23.303 11.81-5.712 25.061-6.914 39.06-6.914s27.25 1.202 39.06 6.914c11.547 5.584 21.717 13.568 29.863 23.303 13.049 15.596 11.796 26.578 11.796 48.503z" fill="url(#SVGID_17_)"/><path d="m165.172 239.83c0 49.61 40.218 89.828 89.828 89.828v-84.227l-86.485-29.971c-2.177 7.75-3.343 15.923-3.343 24.37z" fill="url(#SVGID_18_)"/><path d="m341.485 215.46-86.485 29.971v-95.429c41.162 0 75.861 27.688 86.485 65.458z" fill="url(#SVGID_19_)"/><path d="m344.828 239.83c0 49.61-40.218 89.828-89.828 89.828v-84.227l86.485-29.971c2.177 7.75 3.343 15.923 3.343 24.37z" fill="url(#SVGID_20_)"/><g><path d="m250.597 177.946h8.807v29.134h-8.807z" fill="url(#SVGID_21_)"/><g><path d="m292.322 237.309-2.883-8.321 27.527-9.54 2.884 8.321z" fill="url(#SVGID_22_)"/><path d="m291.386 301.14-17.707-23.135 6.993-5.353 17.708 23.135z" fill="url(#SVGID_23_)"/></g><g><path d="m217.678 237.309-27.528-9.54 2.884-8.321 27.527 9.54z" fill="url(#SVGID_24_)"/><path d="m218.614 301.14-6.994-5.353 17.708-23.135 6.993 5.353z" fill="url(#SVGID_25_)"/></g></g><path d="m165.874 251.103c5.545 44.29 43.333 78.556 89.126 78.556s83.58-34.266 89.126-78.556z" fill="url(#SVGID_26_)"/><path d="m249.818 205.509-31.668 23.008c-3.09 2.245-4.383 6.224-3.202 9.856l12.096 37.228c1.18 3.632 4.565 6.091 8.384 6.091h39.144c3.819 0 7.204-2.459 8.384-6.091l12.096-37.228c1.18-3.632-.113-7.611-3.202-9.856l-31.668-23.008c-3.09-2.245-7.274-2.245-10.364 0z" fill="url(#SVGID_27_)"/><g><path d="m323.921 182.22c-.289.528-.525 1.089-.705 1.68l-11.294 37.478c-1.103 3.657.275 7.609 3.413 9.786l28.784 19.984c.469-3.706.708-7.486.708-11.318.001-21.925-7.854-42.015-20.906-57.61z" fill="url(#SVGID_28_)"/><path d="m286.637 298.113-8.606 28.565c20.847-5.513 38.725-18.336 50.723-35.561l-33.867.729c-3.815.081-7.147 2.61-8.25 6.267z" fill="url(#SVGID_29_)"/><path d="m294.059 158.918c-11.808-5.714-25.06-8.916-39.059-8.916s-27.251 3.202-39.059 8.916c.578.884 1.317 1.677 2.209 2.325l31.669 23.007c3.089 2.244 7.274 2.244 10.364 0l31.669-23.007c.89-.648 1.63-1.441 2.207-2.325z" fill="url(#SVGID_30_)"/><path d="m198.077 221.378-11.294-37.478c-.18-.592-.416-1.152-.705-1.68-13.051 15.595-20.907 35.685-20.907 57.61 0 3.833.24 7.612.708 11.318l28.784-19.984c3.139-2.177 4.517-6.129 3.414-9.786z" fill="url(#SVGID_31_)"/><path d="m215.113 291.846-33.867-.729c11.998 17.226 29.876 30.048 50.723 35.561l-8.606-28.565c-1.103-3.657-4.435-6.186-8.25-6.267z" fill="url(#SVGID_32_)"/></g><path d="m217.939 247.58 9.105 28.022c1.18 3.632 4.565 6.091 8.384 6.091h39.144c3.819 0 7.204-2.459 8.384-6.091l9.105-28.022z" fill="url(#SVGID_33_)"/><g><path d="m294.887 291.846c-3.815.081-7.147 2.61-8.25 6.267l-8.606 28.565c20.847-5.513 38.725-18.336 50.723-35.561z" fill="url(#SVGID_34_)"/><path d="m215.113 291.846-33.867-.729c11.998 17.226 29.876 30.048 50.723 35.561l-8.606-28.565c-1.103-3.657-4.435-6.186-8.25-6.267z" fill="url(#SVGID_35_)"/></g></g><g><path d="m132.922 151.808h-31.829c-13.037 0-22.164-12.124-17.843-23.701 2.661-7.13 9.815-11.902 17.843-11.902h31.829c13.037 0 22.164 12.124 17.843 23.701-2.661 7.13-9.815 11.902-17.843 11.902z" fill="url(#SVGID_36_)"/><path d="m408.908 151.808h-31.829c-13.037 0-22.164-12.124-17.843-23.701 2.661-7.13 9.815-11.902 17.843-11.902h31.829c13.037 0 22.164 12.124 17.843 23.701-2.661 7.13-9.815 11.902-17.843 11.902z" fill="url(#SVGID_37_)"/></g><path d="m476.119 80.305h-442.238c-8.881 0-16.08-7.199-16.08-16.08v-24.955c0-8.881 7.199-16.08 16.08-16.08h442.238c8.881 0 16.08 7.199 16.08 16.08v24.955c0 8.88-7.199 16.08-16.08 16.08z" fill="url(#SVGID_38_)"/><path d="m438.917 103.495h-367.834c-11.086 0-20.073-8.987-20.073-20.073v-63.349c0-11.086 8.987-20.073 20.073-20.073h367.833c11.086 0 20.073 8.987 20.073 20.073v63.348c.001 11.087-8.986 20.074-20.072 20.074z" fill="url(#SVGID_39_)"/><path d="m35.602 19.486v64.522c0 11.355-12.124 19.305-23.701 15.542-7.129-2.317-11.901-8.548-11.901-15.542v-64.522c0-11.355 12.124-19.305 23.701-15.542 7.13 2.318 11.901 8.549 11.901 15.542z" fill="url(#SVGID_40_)"/><path d="m510 19.486v64.522c0 11.355-12.124 19.305-23.701 15.542-7.13-2.318-11.902-8.549-11.902-15.542v-64.522c0-11.355 12.124-19.305 23.701-15.542 7.13 2.318 11.902 8.549 11.902 15.542z" fill="url(#SVGID_41_)"/></g></svg>